G04 #@! TF.GenerationSoftware,KiCad,Pcbnew,(5.1.9)-1*
G04 #@! TF.CreationDate,2021-03-13T02:16:44-05:00*
G04 #@! TF.ProjectId,cartridge,63617274-7269-4646-9765-2e6b69636164,rev?*
G04 #@! TF.SameCoordinates,Original*
G04 #@! TF.FileFunction,Legend,Top*
G04 #@! TF.FilePolarity,Positive*
%FSLAX46Y46*%
G04 Gerber Fmt 4.6, Leading zero omitted, Abs format (unit mm)*
G04 Created by KiCad (PCBNEW (5.1.9)-1) date 2021-03-13 02:16:44*
%MOMM*%
%LPD*%
G01*
G04 APERTURE LIST*
%ADD10C,0.100000*%
%ADD11C,0.120000*%
%ADD12C,0.150000*%
G04 APERTURE END LIST*
D10*
X143542900Y-113549300D02*
X162942900Y-113549300D01*
D11*
X161942900Y-101309300D02*
X143542900Y-101309300D01*
X167667000Y-105198936D02*
X167667000Y-105653064D01*
X169137000Y-105198936D02*
X169137000Y-105653064D01*
X171105500Y-105198936D02*
X171105500Y-105653064D01*
X169635500Y-105198936D02*
X169635500Y-105653064D01*
X166906752Y-109247000D02*
X166384248Y-109247000D01*
X166906752Y-110717000D02*
X166384248Y-110717000D01*
X165593752Y-108431000D02*
X165071248Y-108431000D01*
X165593752Y-106961000D02*
X165071248Y-106961000D01*
X139761900Y-108670548D02*
X139761900Y-109193052D01*
X138291900Y-108670548D02*
X138291900Y-109193052D01*
X141793900Y-108670548D02*
X141793900Y-109193052D01*
X140323900Y-108670548D02*
X140323900Y-109193052D01*
X131125900Y-103097052D02*
X131125900Y-102574548D01*
X129655900Y-103097052D02*
X129655900Y-102574548D01*
X140323900Y-105129052D02*
X140323900Y-104606548D01*
X141793900Y-105129052D02*
X141793900Y-104606548D01*
X120811748Y-74864900D02*
X121334252Y-74864900D01*
X120811748Y-73394900D02*
X121334252Y-73394900D01*
X140323900Y-100542548D02*
X140323900Y-101065052D01*
X141793900Y-100542548D02*
X141793900Y-101065052D01*
X120811748Y-72832900D02*
X121334252Y-72832900D01*
X120811748Y-71362900D02*
X121334252Y-71362900D01*
X120854748Y-69330900D02*
X121377252Y-69330900D01*
X120854748Y-70800900D02*
X121377252Y-70800900D01*
X163691900Y-104098548D02*
X163691900Y-104621052D01*
X165161900Y-104098548D02*
X165161900Y-104621052D01*
X122962000Y-105341300D02*
X122962000Y-106271300D01*
X122962000Y-108501300D02*
X122962000Y-107571300D01*
X122962000Y-108501300D02*
X126122000Y-108501300D01*
X122962000Y-105341300D02*
X124422000Y-105341300D01*
X129874900Y-106500300D02*
X130534900Y-106500300D01*
X128204900Y-106500300D02*
X128874900Y-106500300D01*
X128214900Y-106500300D02*
X128214900Y-109235300D01*
X130534900Y-107910300D02*
X130534900Y-106500300D01*
X133157900Y-113736364D02*
X133157900Y-113282236D01*
X131687900Y-113736364D02*
X131687900Y-113282236D01*
X133719900Y-113736364D02*
X133719900Y-113282236D01*
X135189900Y-113736364D02*
X135189900Y-113282236D01*
X134393000Y-101102936D02*
X134393000Y-101557064D01*
X135863000Y-101102936D02*
X135863000Y-101557064D01*
X133323000Y-101122236D02*
X133323000Y-101576364D01*
X131853000Y-101122236D02*
X131853000Y-101576364D01*
X138291900Y-104678236D02*
X138291900Y-105132364D01*
X139761900Y-104678236D02*
X139761900Y-105132364D01*
X138291900Y-101036364D02*
X138291900Y-100582236D01*
X139761900Y-101036364D02*
X139761900Y-100582236D01*
X167193900Y-104170236D02*
X167193900Y-104624364D01*
X165723900Y-104170236D02*
X165723900Y-104624364D01*
X137064900Y-107429300D02*
X137064900Y-105229300D01*
X137064900Y-107429300D02*
X137064900Y-109629300D01*
X131844900Y-107429300D02*
X131844900Y-105229300D01*
X131844900Y-107429300D02*
X131844900Y-111029300D01*
D12*
X151980995Y-113881680D02*
X151980995Y-114691204D01*
X152028614Y-114786442D01*
X152076233Y-114834061D01*
X152171471Y-114881680D01*
X152361947Y-114881680D01*
X152457185Y-114834061D01*
X152504804Y-114786442D01*
X152552423Y-114691204D01*
X152552423Y-113881680D01*
X152933376Y-113881680D02*
X153552423Y-113881680D01*
X153219090Y-114262633D01*
X153361947Y-114262633D01*
X153457185Y-114310252D01*
X153504804Y-114357871D01*
X153552423Y-114453109D01*
X153552423Y-114691204D01*
X153504804Y-114786442D01*
X153457185Y-114834061D01*
X153361947Y-114881680D01*
X153076233Y-114881680D01*
X152980995Y-114834061D01*
X152933376Y-114786442D01*
X168235333Y-103271580D02*
X167902000Y-102795390D01*
X167663904Y-103271580D02*
X167663904Y-102271580D01*
X168044857Y-102271580D01*
X168140095Y-102319200D01*
X168187714Y-102366819D01*
X168235333Y-102462057D01*
X168235333Y-102604914D01*
X168187714Y-102700152D01*
X168140095Y-102747771D01*
X168044857Y-102795390D01*
X167663904Y-102795390D01*
X168806761Y-102700152D02*
X168711523Y-102652533D01*
X168663904Y-102604914D01*
X168616285Y-102509676D01*
X168616285Y-102462057D01*
X168663904Y-102366819D01*
X168711523Y-102319200D01*
X168806761Y-102271580D01*
X168997238Y-102271580D01*
X169092476Y-102319200D01*
X169140095Y-102366819D01*
X169187714Y-102462057D01*
X169187714Y-102509676D01*
X169140095Y-102604914D01*
X169092476Y-102652533D01*
X168997238Y-102700152D01*
X168806761Y-102700152D01*
X168711523Y-102747771D01*
X168663904Y-102795390D01*
X168616285Y-102890628D01*
X168616285Y-103081104D01*
X168663904Y-103176342D01*
X168711523Y-103223961D01*
X168806761Y-103271580D01*
X168997238Y-103271580D01*
X169092476Y-103223961D01*
X169140095Y-103176342D01*
X169187714Y-103081104D01*
X169187714Y-102890628D01*
X169140095Y-102795390D01*
X169092476Y-102747771D01*
X168997238Y-102700152D01*
X172472880Y-105592666D02*
X171996690Y-105926000D01*
X172472880Y-106164095D02*
X171472880Y-106164095D01*
X171472880Y-105783142D01*
X171520500Y-105687904D01*
X171568119Y-105640285D01*
X171663357Y-105592666D01*
X171806214Y-105592666D01*
X171901452Y-105640285D01*
X171949071Y-105687904D01*
X171996690Y-105783142D01*
X171996690Y-106164095D01*
X171472880Y-104687904D02*
X171472880Y-105164095D01*
X171949071Y-105211714D01*
X171901452Y-105164095D01*
X171853833Y-105068857D01*
X171853833Y-104830761D01*
X171901452Y-104735523D01*
X171949071Y-104687904D01*
X172044309Y-104640285D01*
X172282404Y-104640285D01*
X172377642Y-104687904D01*
X172425261Y-104735523D01*
X172472880Y-104830761D01*
X172472880Y-105068857D01*
X172425261Y-105164095D01*
X172377642Y-105211714D01*
X166478833Y-112019142D02*
X166431214Y-112066761D01*
X166288357Y-112114380D01*
X166193119Y-112114380D01*
X166050261Y-112066761D01*
X165955023Y-111971523D01*
X165907404Y-111876285D01*
X165859785Y-111685809D01*
X165859785Y-111542952D01*
X165907404Y-111352476D01*
X165955023Y-111257238D01*
X166050261Y-111162000D01*
X166193119Y-111114380D01*
X166288357Y-111114380D01*
X166431214Y-111162000D01*
X166478833Y-111209619D01*
X166859785Y-111209619D02*
X166907404Y-111162000D01*
X167002642Y-111114380D01*
X167240738Y-111114380D01*
X167335976Y-111162000D01*
X167383595Y-111209619D01*
X167431214Y-111304857D01*
X167431214Y-111400095D01*
X167383595Y-111542952D01*
X166812166Y-112114380D01*
X167431214Y-112114380D01*
X169029142Y-108154742D02*
X168981523Y-108202361D01*
X168838666Y-108249980D01*
X168743428Y-108249980D01*
X168600571Y-108202361D01*
X168505333Y-108107123D01*
X168457714Y-108011885D01*
X168410095Y-107821409D01*
X168410095Y-107678552D01*
X168457714Y-107488076D01*
X168505333Y-107392838D01*
X168600571Y-107297600D01*
X168743428Y-107249980D01*
X168838666Y-107249980D01*
X168981523Y-107297600D01*
X169029142Y-107345219D01*
X169981523Y-108249980D02*
X169410095Y-108249980D01*
X169695809Y-108249980D02*
X169695809Y-107249980D01*
X169600571Y-107392838D01*
X169505333Y-107488076D01*
X169410095Y-107535695D01*
X170600571Y-107249980D02*
X170695809Y-107249980D01*
X170791047Y-107297600D01*
X170838666Y-107345219D01*
X170886285Y-107440457D01*
X170933904Y-107630933D01*
X170933904Y-107869028D01*
X170886285Y-108059504D01*
X170838666Y-108154742D01*
X170791047Y-108202361D01*
X170695809Y-108249980D01*
X170600571Y-108249980D01*
X170505333Y-108202361D01*
X170457714Y-108154742D01*
X170410095Y-108059504D01*
X170362476Y-107869028D01*
X170362476Y-107630933D01*
X170410095Y-107440457D01*
X170457714Y-107345219D01*
X170505333Y-107297600D01*
X170600571Y-107249980D01*
X138822133Y-111710742D02*
X138774514Y-111758361D01*
X138631657Y-111805980D01*
X138536419Y-111805980D01*
X138393561Y-111758361D01*
X138298323Y-111663123D01*
X138250704Y-111567885D01*
X138203085Y-111377409D01*
X138203085Y-111234552D01*
X138250704Y-111044076D01*
X138298323Y-110948838D01*
X138393561Y-110853600D01*
X138536419Y-110805980D01*
X138631657Y-110805980D01*
X138774514Y-110853600D01*
X138822133Y-110901219D01*
X139774514Y-111805980D02*
X139203085Y-111805980D01*
X139488800Y-111805980D02*
X139488800Y-110805980D01*
X139393561Y-110948838D01*
X139298323Y-111044076D01*
X139203085Y-111091695D01*
X140854133Y-111710742D02*
X140806514Y-111758361D01*
X140663657Y-111805980D01*
X140568419Y-111805980D01*
X140425561Y-111758361D01*
X140330323Y-111663123D01*
X140282704Y-111567885D01*
X140235085Y-111377409D01*
X140235085Y-111234552D01*
X140282704Y-111044076D01*
X140330323Y-110948838D01*
X140425561Y-110853600D01*
X140568419Y-110805980D01*
X140663657Y-110805980D01*
X140806514Y-110853600D01*
X140854133Y-110901219D01*
X141187466Y-110805980D02*
X141806514Y-110805980D01*
X141473180Y-111186933D01*
X141616038Y-111186933D01*
X141711276Y-111234552D01*
X141758895Y-111282171D01*
X141806514Y-111377409D01*
X141806514Y-111615504D01*
X141758895Y-111710742D01*
X141711276Y-111758361D01*
X141616038Y-111805980D01*
X141330323Y-111805980D01*
X141235085Y-111758361D01*
X141187466Y-111710742D01*
X129068042Y-103002466D02*
X129115661Y-103050085D01*
X129163280Y-103192942D01*
X129163280Y-103288180D01*
X129115661Y-103431038D01*
X129020423Y-103526276D01*
X128925185Y-103573895D01*
X128734709Y-103621514D01*
X128591852Y-103621514D01*
X128401376Y-103573895D01*
X128306138Y-103526276D01*
X128210900Y-103431038D01*
X128163280Y-103288180D01*
X128163280Y-103192942D01*
X128210900Y-103050085D01*
X128258519Y-103002466D01*
X128496614Y-102145323D02*
X129163280Y-102145323D01*
X128115661Y-102383419D02*
X128829947Y-102621514D01*
X128829947Y-102002466D01*
X137974342Y-106135466D02*
X138021961Y-106183085D01*
X138069580Y-106325942D01*
X138069580Y-106421180D01*
X138021961Y-106564038D01*
X137926723Y-106659276D01*
X137831485Y-106706895D01*
X137641009Y-106754514D01*
X137498152Y-106754514D01*
X137307676Y-106706895D01*
X137212438Y-106659276D01*
X137117200Y-106564038D01*
X137069580Y-106421180D01*
X137069580Y-106325942D01*
X137117200Y-106183085D01*
X137164819Y-106135466D01*
X137069580Y-105230704D02*
X137069580Y-105706895D01*
X137545771Y-105754514D01*
X137498152Y-105706895D01*
X137450533Y-105611657D01*
X137450533Y-105373561D01*
X137498152Y-105278323D01*
X137545771Y-105230704D01*
X137641009Y-105183085D01*
X137879104Y-105183085D01*
X137974342Y-105230704D01*
X138021961Y-105278323D01*
X138069580Y-105373561D01*
X138069580Y-105611657D01*
X138021961Y-105706895D01*
X137974342Y-105754514D01*
X123785333Y-74474342D02*
X123737714Y-74521961D01*
X123594857Y-74569580D01*
X123499619Y-74569580D01*
X123356761Y-74521961D01*
X123261523Y-74426723D01*
X123213904Y-74331485D01*
X123166285Y-74141009D01*
X123166285Y-73998152D01*
X123213904Y-73807676D01*
X123261523Y-73712438D01*
X123356761Y-73617200D01*
X123499619Y-73569580D01*
X123594857Y-73569580D01*
X123737714Y-73617200D01*
X123785333Y-73664819D01*
X124642476Y-73569580D02*
X124452000Y-73569580D01*
X124356761Y-73617200D01*
X124309142Y-73664819D01*
X124213904Y-73807676D01*
X124166285Y-73998152D01*
X124166285Y-74379104D01*
X124213904Y-74474342D01*
X124261523Y-74521961D01*
X124356761Y-74569580D01*
X124547238Y-74569580D01*
X124642476Y-74521961D01*
X124690095Y-74474342D01*
X124737714Y-74379104D01*
X124737714Y-74141009D01*
X124690095Y-74045771D01*
X124642476Y-73998152D01*
X124547238Y-73950533D01*
X124356761Y-73950533D01*
X124261523Y-73998152D01*
X124213904Y-74045771D01*
X124166285Y-74141009D01*
X140930333Y-98718642D02*
X140882714Y-98766261D01*
X140739857Y-98813880D01*
X140644619Y-98813880D01*
X140501761Y-98766261D01*
X140406523Y-98671023D01*
X140358904Y-98575785D01*
X140311285Y-98385309D01*
X140311285Y-98242452D01*
X140358904Y-98051976D01*
X140406523Y-97956738D01*
X140501761Y-97861500D01*
X140644619Y-97813880D01*
X140739857Y-97813880D01*
X140882714Y-97861500D01*
X140930333Y-97909119D01*
X141263666Y-97813880D02*
X141930333Y-97813880D01*
X141501761Y-98813880D01*
X123734533Y-72493142D02*
X123686914Y-72540761D01*
X123544057Y-72588380D01*
X123448819Y-72588380D01*
X123305961Y-72540761D01*
X123210723Y-72445523D01*
X123163104Y-72350285D01*
X123115485Y-72159809D01*
X123115485Y-72016952D01*
X123163104Y-71826476D01*
X123210723Y-71731238D01*
X123305961Y-71636000D01*
X123448819Y-71588380D01*
X123544057Y-71588380D01*
X123686914Y-71636000D01*
X123734533Y-71683619D01*
X124305961Y-72016952D02*
X124210723Y-71969333D01*
X124163104Y-71921714D01*
X124115485Y-71826476D01*
X124115485Y-71778857D01*
X124163104Y-71683619D01*
X124210723Y-71636000D01*
X124305961Y-71588380D01*
X124496438Y-71588380D01*
X124591676Y-71636000D01*
X124639295Y-71683619D01*
X124686914Y-71778857D01*
X124686914Y-71826476D01*
X124639295Y-71921714D01*
X124591676Y-71969333D01*
X124496438Y-72016952D01*
X124305961Y-72016952D01*
X124210723Y-72064571D01*
X124163104Y-72112190D01*
X124115485Y-72207428D01*
X124115485Y-72397904D01*
X124163104Y-72493142D01*
X124210723Y-72540761D01*
X124305961Y-72588380D01*
X124496438Y-72588380D01*
X124591676Y-72540761D01*
X124639295Y-72493142D01*
X124686914Y-72397904D01*
X124686914Y-72207428D01*
X124639295Y-72112190D01*
X124591676Y-72064571D01*
X124496438Y-72016952D01*
X123785333Y-70461142D02*
X123737714Y-70508761D01*
X123594857Y-70556380D01*
X123499619Y-70556380D01*
X123356761Y-70508761D01*
X123261523Y-70413523D01*
X123213904Y-70318285D01*
X123166285Y-70127809D01*
X123166285Y-69984952D01*
X123213904Y-69794476D01*
X123261523Y-69699238D01*
X123356761Y-69604000D01*
X123499619Y-69556380D01*
X123594857Y-69556380D01*
X123737714Y-69604000D01*
X123785333Y-69651619D01*
X124261523Y-70556380D02*
X124452000Y-70556380D01*
X124547238Y-70508761D01*
X124594857Y-70461142D01*
X124690095Y-70318285D01*
X124737714Y-70127809D01*
X124737714Y-69746857D01*
X124690095Y-69651619D01*
X124642476Y-69604000D01*
X124547238Y-69556380D01*
X124356761Y-69556380D01*
X124261523Y-69604000D01*
X124213904Y-69651619D01*
X124166285Y-69746857D01*
X124166285Y-69984952D01*
X124213904Y-70080190D01*
X124261523Y-70127809D01*
X124356761Y-70175428D01*
X124547238Y-70175428D01*
X124642476Y-70127809D01*
X124690095Y-70080190D01*
X124737714Y-69984952D01*
X163847542Y-101804742D02*
X163799923Y-101852361D01*
X163657066Y-101899980D01*
X163561828Y-101899980D01*
X163418971Y-101852361D01*
X163323733Y-101757123D01*
X163276114Y-101661885D01*
X163228495Y-101471409D01*
X163228495Y-101328552D01*
X163276114Y-101138076D01*
X163323733Y-101042838D01*
X163418971Y-100947600D01*
X163561828Y-100899980D01*
X163657066Y-100899980D01*
X163799923Y-100947600D01*
X163847542Y-100995219D01*
X164799923Y-101899980D02*
X164228495Y-101899980D01*
X164514209Y-101899980D02*
X164514209Y-100899980D01*
X164418971Y-101042838D01*
X164323733Y-101138076D01*
X164228495Y-101185695D01*
X165752304Y-101899980D02*
X165180876Y-101899980D01*
X165466590Y-101899980D02*
X165466590Y-100899980D01*
X165371352Y-101042838D01*
X165276114Y-101138076D01*
X165180876Y-101185695D01*
X151423904Y-145137142D02*
X151376285Y-145184761D01*
X151233428Y-145232380D01*
X151138190Y-145232380D01*
X150995333Y-145184761D01*
X150900095Y-145089523D01*
X150852476Y-144994285D01*
X150804857Y-144803809D01*
X150804857Y-144660952D01*
X150852476Y-144470476D01*
X150900095Y-144375238D01*
X150995333Y-144280000D01*
X151138190Y-144232380D01*
X151233428Y-144232380D01*
X151376285Y-144280000D01*
X151423904Y-144327619D01*
X152042952Y-144232380D02*
X152233428Y-144232380D01*
X152328666Y-144280000D01*
X152423904Y-144375238D01*
X152471523Y-144565714D01*
X152471523Y-144899047D01*
X152423904Y-145089523D01*
X152328666Y-145184761D01*
X152233428Y-145232380D01*
X152042952Y-145232380D01*
X151947714Y-145184761D01*
X151852476Y-145089523D01*
X151804857Y-144899047D01*
X151804857Y-144565714D01*
X151852476Y-144375238D01*
X151947714Y-144280000D01*
X152042952Y-144232380D01*
X152900095Y-145232380D02*
X152900095Y-144232380D01*
X153471523Y-145232380D01*
X153471523Y-144232380D01*
X153947714Y-145232380D02*
X153947714Y-144232380D01*
X154519142Y-145232380D01*
X154519142Y-144232380D01*
X155519142Y-145232380D02*
X154947714Y-145232380D01*
X155233428Y-145232380D02*
X155233428Y-144232380D01*
X155138190Y-144375238D01*
X155042952Y-144470476D01*
X154947714Y-144518095D01*
X123912404Y-109862880D02*
X123912404Y-108862880D01*
X124150500Y-108862880D01*
X124293357Y-108910500D01*
X124388595Y-109005738D01*
X124436214Y-109100976D01*
X124483833Y-109291452D01*
X124483833Y-109434309D01*
X124436214Y-109624785D01*
X124388595Y-109720023D01*
X124293357Y-109815261D01*
X124150500Y-109862880D01*
X123912404Y-109862880D01*
X125436214Y-109862880D02*
X124864785Y-109862880D01*
X125150500Y-109862880D02*
X125150500Y-108862880D01*
X125055261Y-109005738D01*
X124960023Y-109100976D01*
X124864785Y-109148595D01*
X127827280Y-107973395D02*
X126827280Y-107973395D01*
X126827280Y-107735300D01*
X126874900Y-107592442D01*
X126970138Y-107497204D01*
X127065376Y-107449585D01*
X127255852Y-107401966D01*
X127398709Y-107401966D01*
X127589185Y-107449585D01*
X127684423Y-107497204D01*
X127779661Y-107592442D01*
X127827280Y-107735300D01*
X127827280Y-107973395D01*
X126922519Y-107021014D02*
X126874900Y-106973395D01*
X126827280Y-106878157D01*
X126827280Y-106640061D01*
X126874900Y-106544823D01*
X126922519Y-106497204D01*
X127017757Y-106449585D01*
X127112995Y-106449585D01*
X127255852Y-106497204D01*
X127827280Y-107068633D01*
X127827280Y-106449585D01*
X131225280Y-113675966D02*
X130749090Y-114009300D01*
X131225280Y-114247395D02*
X130225280Y-114247395D01*
X130225280Y-113866442D01*
X130272900Y-113771204D01*
X130320519Y-113723585D01*
X130415757Y-113675966D01*
X130558614Y-113675966D01*
X130653852Y-113723585D01*
X130701471Y-113771204D01*
X130749090Y-113866442D01*
X130749090Y-114247395D01*
X131225280Y-112723585D02*
X131225280Y-113295014D01*
X131225280Y-113009300D02*
X130225280Y-113009300D01*
X130368138Y-113104538D01*
X130463376Y-113199776D01*
X130510995Y-113295014D01*
X136647180Y-113675966D02*
X136170990Y-114009300D01*
X136647180Y-114247395D02*
X135647180Y-114247395D01*
X135647180Y-113866442D01*
X135694800Y-113771204D01*
X135742419Y-113723585D01*
X135837657Y-113675966D01*
X135980514Y-113675966D01*
X136075752Y-113723585D01*
X136123371Y-113771204D01*
X136170990Y-113866442D01*
X136170990Y-114247395D01*
X135742419Y-113295014D02*
X135694800Y-113247395D01*
X135647180Y-113152157D01*
X135647180Y-112914061D01*
X135694800Y-112818823D01*
X135742419Y-112771204D01*
X135837657Y-112723585D01*
X135932895Y-112723585D01*
X136075752Y-112771204D01*
X136647180Y-113342633D01*
X136647180Y-112723585D01*
X134961333Y-99385380D02*
X134628000Y-98909190D01*
X134389904Y-99385380D02*
X134389904Y-98385380D01*
X134770857Y-98385380D01*
X134866095Y-98433000D01*
X134913714Y-98480619D01*
X134961333Y-98575857D01*
X134961333Y-98718714D01*
X134913714Y-98813952D01*
X134866095Y-98861571D01*
X134770857Y-98909190D01*
X134389904Y-98909190D01*
X135294666Y-98385380D02*
X135913714Y-98385380D01*
X135580380Y-98766333D01*
X135723238Y-98766333D01*
X135818476Y-98813952D01*
X135866095Y-98861571D01*
X135913714Y-98956809D01*
X135913714Y-99194904D01*
X135866095Y-99290142D01*
X135818476Y-99337761D01*
X135723238Y-99385380D01*
X135437523Y-99385380D01*
X135342285Y-99337761D01*
X135294666Y-99290142D01*
X132484833Y-99575880D02*
X132151500Y-99099690D01*
X131913404Y-99575880D02*
X131913404Y-98575880D01*
X132294357Y-98575880D01*
X132389595Y-98623500D01*
X132437214Y-98671119D01*
X132484833Y-98766357D01*
X132484833Y-98909214D01*
X132437214Y-99004452D01*
X132389595Y-99052071D01*
X132294357Y-99099690D01*
X131913404Y-99099690D01*
X133341976Y-98909214D02*
X133341976Y-99575880D01*
X133103880Y-98528261D02*
X132865785Y-99242547D01*
X133484833Y-99242547D01*
X136942533Y-103931980D02*
X136609200Y-103455790D01*
X136371104Y-103931980D02*
X136371104Y-102931980D01*
X136752057Y-102931980D01*
X136847295Y-102979600D01*
X136894914Y-103027219D01*
X136942533Y-103122457D01*
X136942533Y-103265314D01*
X136894914Y-103360552D01*
X136847295Y-103408171D01*
X136752057Y-103455790D01*
X136371104Y-103455790D01*
X137799676Y-102931980D02*
X137609200Y-102931980D01*
X137513961Y-102979600D01*
X137466342Y-103027219D01*
X137371104Y-103170076D01*
X137323485Y-103360552D01*
X137323485Y-103741504D01*
X137371104Y-103836742D01*
X137418723Y-103884361D01*
X137513961Y-103931980D01*
X137704438Y-103931980D01*
X137799676Y-103884361D01*
X137847295Y-103836742D01*
X137894914Y-103741504D01*
X137894914Y-103503409D01*
X137847295Y-103408171D01*
X137799676Y-103360552D01*
X137704438Y-103312933D01*
X137513961Y-103312933D01*
X137418723Y-103360552D01*
X137371104Y-103408171D01*
X137323485Y-103503409D01*
X138898333Y-98877380D02*
X138565000Y-98401190D01*
X138326904Y-98877380D02*
X138326904Y-97877380D01*
X138707857Y-97877380D01*
X138803095Y-97925000D01*
X138850714Y-97972619D01*
X138898333Y-98067857D01*
X138898333Y-98210714D01*
X138850714Y-98305952D01*
X138803095Y-98353571D01*
X138707857Y-98401190D01*
X138326904Y-98401190D01*
X139231666Y-97877380D02*
X139898333Y-97877380D01*
X139469761Y-98877380D01*
X166508133Y-101950780D02*
X166174800Y-101474590D01*
X165936704Y-101950780D02*
X165936704Y-100950780D01*
X166317657Y-100950780D01*
X166412895Y-100998400D01*
X166460514Y-101046019D01*
X166508133Y-101141257D01*
X166508133Y-101284114D01*
X166460514Y-101379352D01*
X166412895Y-101426971D01*
X166317657Y-101474590D01*
X165936704Y-101474590D01*
X166984323Y-101950780D02*
X167174800Y-101950780D01*
X167270038Y-101903161D01*
X167317657Y-101855542D01*
X167412895Y-101712685D01*
X167460514Y-101522209D01*
X167460514Y-101141257D01*
X167412895Y-101046019D01*
X167365276Y-100998400D01*
X167270038Y-100950780D01*
X167079561Y-100950780D01*
X166984323Y-100998400D01*
X166936704Y-101046019D01*
X166889085Y-101141257D01*
X166889085Y-101379352D01*
X166936704Y-101474590D01*
X166984323Y-101522209D01*
X167079561Y-101569828D01*
X167270038Y-101569828D01*
X167365276Y-101522209D01*
X167412895Y-101474590D01*
X167460514Y-101379352D01*
X130579880Y-106362404D02*
X131389404Y-106362404D01*
X131484642Y-106314785D01*
X131532261Y-106267166D01*
X131579880Y-106171928D01*
X131579880Y-105981452D01*
X131532261Y-105886214D01*
X131484642Y-105838595D01*
X131389404Y-105790976D01*
X130579880Y-105790976D01*
X130675119Y-105362404D02*
X130627500Y-105314785D01*
X130579880Y-105219547D01*
X130579880Y-104981452D01*
X130627500Y-104886214D01*
X130675119Y-104838595D01*
X130770357Y-104790976D01*
X130865595Y-104790976D01*
X131008452Y-104838595D01*
X131579880Y-105410023D01*
X131579880Y-104790976D01*
M02*
