M48
; DRILL file {KiCad (5.1.9)-1} date 03/13/21 02:17:10
; FORMAT={-:-/ absolute / inch / decimal}
; #@! TF.CreationDate,2021-03-13T02:17:10-05:00
; #@! TF.GenerationSoftware,Kicad,Pcbnew,(5.1.9)-1
; #@! TF.FileFunction,Plated,1,2,PTH
FMAT,2
INCH
T1C0.0118
T2C0.0157
T3C0.0315
T4C0.0354
T5C0.0430
T6C0.0433
%
G90
G05
T1
X4.75Y-3.834
X4.8945Y-4.1297
X4.9Y-3.48
X4.905Y-3.305
X4.962Y-4.12
X5.03Y-3.755
X5.065Y-3.52
X5.115Y-3.37
X5.276Y-4.806
X5.28Y-3.36
X5.302Y-4.716
X5.38Y-3.758
X5.422Y-4.404
X5.422Y-4.46
X5.43Y-3.86
X5.45Y-4.33
X5.456Y-3.8319
X5.465Y-3.37
X5.48Y-3.863
X5.5Y-3.285
X5.59Y-3.4825
X5.605Y-3.38
X5.615Y-3.28
X5.725Y-3.615
X5.7325Y-3.505
X5.735Y-3.39
X5.7375Y-3.285
X5.8325Y-3.3875
X5.835Y-3.2925
X5.835Y-3.605
X5.8375Y-3.505
X5.935Y-3.495
X5.935Y-3.595
X5.9375Y-3.3925
X6.0375Y-3.59
X6.0525Y-3.5075
X6.055Y-3.315
X6.055Y-3.415
X6.1625Y-3.625
X6.1675Y-3.525
X6.17Y-3.435
X6.1725Y-3.24
X6.1725Y-3.32
X6.185Y-3.92
X6.2425Y-3.045
X6.2525Y-3.8575
X6.272Y-5.066
X6.306Y-5.154
X6.3075Y-3.0225
X6.32Y-3.245
X6.3375Y-3.3975
X6.3425Y-3.5
X6.4325Y-3.585
X6.435Y-3.38
X6.435Y-3.495
X6.705Y-3.495
X6.705Y-3.575
X6.71Y-3.385
X6.765Y-2.925
X6.7689Y-3.03
X6.779Y-3.939
X6.79Y-3.575
X6.82Y-2.74
X6.92Y-3.26
X7.01Y-3.46
X7.015Y-3.265
X7.085Y-3.255
X7.12Y-3.19
X7.135Y-2.79
T2
X4.72Y-3.22
X4.73Y-4.66
X4.75Y-2.58
X4.755Y-3.28
X4.7574Y-3.175
X4.78Y-4.33
X4.782Y-4.106
X4.785Y-5.1
X4.785Y-5.16
X4.79Y-3.005
X4.8Y-4.727
X4.8107Y-4.5296
X4.82Y-3.95
X4.82Y-4.57
X4.8397Y-4.1602
X4.845Y-4.3
X4.87Y-5.1
X4.87Y-5.165
X4.881Y-4.879
X4.89Y-4.575
X4.9Y-2.57
X4.905Y-4.76
X4.925Y-4.925
X4.93Y-2.828
X4.93Y-2.908
X4.93Y-5.1
X4.93Y-5.165
X4.932Y-2.756
X4.94Y-4.79
X4.96Y-5.05
X4.98Y-4.82
X4.988Y-4.977
X4.99Y-3.945
X5.0Y-3.9007
X5.03Y-4.69
X5.04Y-3.88
X5.0407Y-4.0307
X5.06Y-4.96
X5.0623Y-4.08
X5.0725Y-2.9625
X5.085Y-3.8507
X5.1099Y-5.19
X5.115Y-4.42
X5.125Y-4.76
X5.1351Y-2.855
X5.14Y-3.945
X5.14Y-4.2
X5.145Y-2.9575
X5.15Y-4.845
X5.16Y-4.6
X5.17Y-4.31
X5.175Y-3.375
X5.1775Y-3.875
X5.18Y-5.02
X5.1875Y-2.8625
X5.1923Y-4.0309
X5.2099Y-5.18
X5.2119Y-4.1681
X5.23Y-3.87
X5.24Y-4.8751
X5.245Y-4.725
X5.25Y-4.58
X5.2525Y-2.935
X5.2604Y-4.1699
X5.2634Y-4.26
X5.27Y-4.0
X5.28Y-5.02
X5.3099Y-5.18
X5.335Y-2.975
X5.3375Y-2.795
X5.34Y-3.855
X5.34Y-4.24
X5.34Y-4.8937
X5.3418Y-4.3953
X5.345Y-4.715
X5.3679Y-4.1775
X5.38Y-3.9882
X5.38Y-5.02
X5.3987Y-2.9787
X5.4Y-4.64
X5.4119Y-3.9559
X5.4125Y-2.86
X5.4131Y-4.222
X5.415Y-4.75
X5.43Y-4.03
X5.43Y-4.12
X5.435Y-3.7528
X5.44Y-2.915
X5.44Y-3.055
X5.4543Y-4.68
X5.4575Y-2.79
X5.47Y-2.58
X5.4801Y-4.8051
X5.4851Y-5.18
X5.5266Y-5.18
X5.531Y-4.6511
X5.535Y-3.05
X5.54Y-2.9
X5.545Y-4.725
X5.5451Y-4.8249
X5.56Y-5.02
X5.5675Y-4.1675
X5.5999Y-5.18
X5.6001Y-4.615
X5.63Y-4.8622
X5.635Y-3.05
X5.635Y-4.725
X5.64Y-2.9
X5.645Y-3.855
X5.645Y-3.93
X5.66Y-5.02
X5.6999Y-5.18
X5.72Y-4.04
X5.72Y-4.4258
X5.73Y-3.05
X5.73Y-4.8996
X5.74Y-2.905
X5.7425Y-3.92
X5.76Y-4.57
X5.76Y-5.02
X5.7625Y-4.725
X5.765Y-3.855
X5.8074Y-4.9369
X5.8148Y-4.4258
X5.8148Y-4.55
X5.83Y-5.1
X5.835Y-2.905
X5.835Y-3.05
X5.8425Y-2.5775
X5.89Y-5.0
X5.89Y-5.16
X5.905Y-2.8075
X5.94Y-2.905
X5.94Y-3.055
X5.9601Y-5.02
X5.9775Y-2.7275
X5.98Y-5.09
X5.989Y-4.052
X5.99Y-4.95
X6.003Y-4.098
X6.0075Y-3.94
X6.0075Y-4.203
X6.02Y-2.5775
X6.022Y-4.144
X6.03Y-4.91
X6.0601Y-4.85
X6.1Y-4.91
X6.1213Y-3.0197
X6.13Y-5.01
X6.14Y-2.74
X6.145Y-2.6
X6.15Y-3.94
X6.17Y-4.93
X6.21Y-3.575
X6.2199Y-5.02
X6.2275Y-2.575
X6.2325Y-2.835
X6.2487Y-4.96
X6.25Y-3.0
X6.3Y-5.02
X6.3087Y-3.5613
X6.3301Y-4.96
X6.3655Y-3.1988
X6.37Y-3.7546
X6.38Y-5.09
X6.406Y-3.2453
X6.41Y-2.7349
X6.42Y-4.58
X6.42Y-4.97
X6.4201Y-3.0164
X6.4401Y-2.98
X6.4501Y-5.02
X6.4599Y-3.2125
X6.4675Y-3.1671
X6.475Y-4.085
X6.48Y-5.09
X6.4975Y-3.245
X6.52Y-3.35
X6.52Y-3.475
X6.52Y-3.59
X6.52Y-4.8803
X6.55Y-4.85
X6.5501Y-5.15
X6.5757Y-2.7307
X6.59Y-5.09
X6.6Y-4.74
X6.61Y-4.24
X6.63Y-4.5501
X6.63Y-4.88
X6.6325Y-2.5825
X6.635Y-3.96
X6.6404Y-3.3223
X6.645Y-4.435
X6.6601Y-5.15
X6.6675Y-2.8125
X6.668Y-3.2913
X6.69Y-4.54
X6.69Y-5.09
X6.7049Y-2.8751
X6.7088Y-3.1959
X6.711Y-2.7428
X6.73Y-4.59
X6.74Y-3.955
X6.74Y-4.025
X6.755Y-4.27
X6.76Y-3.16
X6.7601Y-4.64
X6.7601Y-5.15
X6.7608Y-3.2239
X6.785Y-3.46
X6.7875Y-2.575
X6.79Y-3.866
X6.7901Y-2.885
X6.795Y-4.525
X6.795Y-4.795
X6.8Y-5.09
X6.81Y-3.175
X6.83Y-4.67
X6.8601Y-4.71
X6.8601Y-5.15
X6.885Y-3.465
X6.89Y-3.99
X6.8901Y-4.9104
X6.9Y-5.09
X6.905Y-2.8529
X6.91Y-4.21
X6.9407Y-4.9185
X6.9465Y-2.869
X6.9601Y-5.15
X6.9702Y-4.265
X6.9712Y-3.7712
X6.985Y-4.46
X6.985Y-4.725
X7.0Y-5.09
X7.0063Y-2.73
X7.025Y-2.8475
X7.03Y-4.98
X7.07Y-5.09
X7.07Y-5.15
X7.075Y-4.355
X7.08Y-3.48
X7.08Y-4.45
X7.08Y-4.725
X7.105Y-3.83
X7.1075Y-2.5725
X7.125Y-2.945
X7.125Y-4.26
T3
X4.8162Y-3.3475
X4.8162Y-3.4475
X5.2981Y-3.444
X5.2981Y-3.5228
X5.2981Y-3.6015
X5.3769Y-3.444
X5.3769Y-3.5228
X5.3769Y-3.6015
T4
X6.5506Y-2.8813
X6.8656Y-2.8813
T5
X4.7275Y-2.4775
X4.7275Y-2.6685
X4.8275Y-2.4775
X4.8275Y-2.6685
X4.9275Y-2.4775
X4.9275Y-2.6685
X5.0275Y-2.4775
X5.0275Y-2.6685
X5.1275Y-2.4775
X5.1275Y-2.6685
X5.2275Y-2.4775
X5.2275Y-2.6685
X5.3275Y-2.4775
X5.3275Y-2.6685
X5.4275Y-2.4775
X5.4275Y-2.6685
X5.5275Y-2.4775
X5.5275Y-2.6685
X5.6275Y-2.4775
X5.6275Y-2.6685
X5.7275Y-2.4775
X5.7275Y-2.6685
X5.8275Y-2.4775
X5.8275Y-2.6685
X5.9275Y-2.4775
X5.9275Y-2.6685
X6.0275Y-2.4775
X6.0275Y-2.6685
X6.1275Y-2.4775
X6.1275Y-2.6685
X6.2275Y-2.4775
X6.2275Y-2.6685
X6.3275Y-2.4775
X6.3275Y-2.6685
X6.4275Y-2.4775
X6.4275Y-2.6685
X6.5275Y-2.4775
X6.5275Y-2.6685
X6.6275Y-2.4775
X6.6275Y-2.6685
X6.7275Y-2.4775
X6.7275Y-2.6685
X6.8275Y-2.4775
X6.8275Y-2.6685
X6.9275Y-2.4775
X6.9275Y-2.6685
X7.0275Y-2.4775
X7.0275Y-2.6685
X7.1275Y-2.4775
X7.1275Y-2.6685
T6
X4.7875Y-3.0975
X4.7875Y-3.6975
X4.8875Y-3.0975
X4.8875Y-3.5975
X4.8875Y-3.6975
X4.9875Y-3.0975
X4.9875Y-3.6975
X5.0355Y-3.2176
X5.0875Y-3.0975
X5.0875Y-3.6975
X5.1355Y-3.2176
X5.1875Y-3.0975
X5.1875Y-3.6975
X5.2355Y-3.2176
X5.2875Y-3.0975
X5.2875Y-3.6975
X5.3355Y-3.2176
X5.3875Y-3.0975
X5.3875Y-3.6975
X5.4355Y-3.2176
X5.4875Y-3.0975
X5.4875Y-3.6975
X5.5875Y-3.0975
X5.5875Y-3.6975
X5.6875Y-3.0975
X5.6875Y-3.6975
X5.7875Y-3.0975
X5.7875Y-3.6975
X5.8875Y-3.0975
X5.8875Y-3.6975
X5.9875Y-3.0975
X5.9875Y-3.6975
X6.065Y-2.835
X6.065Y-2.935
X6.0875Y-3.0975
X6.0875Y-3.6975
X6.1875Y-3.0975
X6.1875Y-3.6975
X6.2875Y-3.0975
X6.2875Y-3.6975
X6.365Y-2.835
X6.365Y-2.935
X6.3875Y-3.0975
X6.3875Y-3.6975
X6.4875Y-3.0975
X6.4875Y-3.6975
X6.5875Y-3.0975
X6.5875Y-3.1975
X6.5875Y-3.2975
X6.5875Y-3.3975
X6.5875Y-3.4975
X6.5875Y-3.5975
X6.5875Y-3.6975
X6.6875Y-3.0975
X6.6875Y-3.6975
X6.7875Y-3.0975
X6.7875Y-3.6975
X6.8875Y-3.0975
X6.8875Y-3.6975
X6.9875Y-3.0975
X6.9875Y-3.6975
X7.0875Y-3.0975
X7.0875Y-3.6975
T0
M30
