G04 #@! TF.GenerationSoftware,KiCad,Pcbnew,(5.1.9)-1*
G04 #@! TF.CreationDate,2021-04-12T22:08:35-04:00*
G04 #@! TF.ProjectId,cartridge,63617274-7269-4646-9765-2e6b69636164,rev?*
G04 #@! TF.SameCoordinates,Original*
G04 #@! TF.FileFunction,Soldermask,Bot*
G04 #@! TF.FilePolarity,Negative*
%FSLAX46Y46*%
G04 Gerber Fmt 4.6, Leading zero omitted, Abs format (unit mm)*
G04 Created by KiCad (PCBNEW (5.1.9)-1) date 2021-04-12 22:08:35*
%MOMM*%
%LPD*%
G01*
G04 APERTURE LIST*
%ADD10C,1.600200*%
%ADD11R,1.524000X1.524000*%
%ADD12R,1.600000X9.000000*%
%ADD13C,1.700000*%
%ADD14R,0.800000X2.000000*%
%ADD15C,0.900000*%
%ADD16C,1.600000*%
%ADD17R,1.600000X1.600000*%
%ADD18R,1.300000X1.300000*%
%ADD19C,1.300000*%
G04 APERTURE END LIST*
D10*
X181038500Y-67779900D03*
X178498500Y-67779900D03*
X175958500Y-67779900D03*
X173418500Y-67779900D03*
X170878500Y-67779900D03*
X168338500Y-67779900D03*
X165798500Y-67779900D03*
X163258500Y-67779900D03*
X160718500Y-67779900D03*
X158178500Y-67779900D03*
X155638500Y-67779900D03*
X153098500Y-67779900D03*
X150558500Y-67779900D03*
X148018500Y-67779900D03*
X145478500Y-67779900D03*
X142938500Y-67779900D03*
X140398500Y-67779900D03*
X137858500Y-67779900D03*
X135318500Y-67779900D03*
X132778500Y-67779900D03*
X130238500Y-67779900D03*
X127698500Y-67779900D03*
X125158500Y-67779900D03*
X122618500Y-67779900D03*
X120078500Y-67779900D03*
X181038500Y-62928500D03*
X178498500Y-62928500D03*
X175958500Y-62928500D03*
X173418500Y-62928500D03*
X170878500Y-62928500D03*
X168338500Y-62928500D03*
X165798500Y-62928500D03*
X163258500Y-62928500D03*
X160718500Y-62928500D03*
X158178500Y-62928500D03*
X155638500Y-62928500D03*
X153098500Y-62928500D03*
X150558500Y-62928500D03*
X148018500Y-62928500D03*
X145478500Y-62928500D03*
X142938500Y-62928500D03*
X140398500Y-62928500D03*
X137858500Y-62928500D03*
X135318500Y-62928500D03*
X132778500Y-62928500D03*
X130238500Y-62928500D03*
X127698500Y-62928500D03*
X125158500Y-62928500D03*
X122618500Y-62928500D03*
D11*
X120078500Y-62928500D03*
D12*
X120142000Y-137160000D03*
X122682000Y-137160000D03*
X125222000Y-137160000D03*
X127762000Y-137160000D03*
X130302000Y-137160000D03*
X132842000Y-137160000D03*
X135382000Y-137160000D03*
X137922000Y-137160000D03*
X140462000Y-137160000D03*
X143002000Y-137160000D03*
X145542000Y-137160000D03*
X148082000Y-137160000D03*
X150622000Y-137160000D03*
X153162000Y-137160000D03*
X158242000Y-137160000D03*
X160782000Y-137160000D03*
X163322000Y-137160000D03*
X165862000Y-137160000D03*
X168402000Y-137160000D03*
X170942000Y-137160000D03*
X173482000Y-137160000D03*
X176022000Y-137160000D03*
X178562000Y-137160000D03*
X181102000Y-137160000D03*
D13*
X154051000Y-72009000D03*
X161671000Y-72009000D03*
X161671000Y-74549000D03*
X154051000Y-74549000D03*
D14*
X175386000Y-71184000D03*
X167386000Y-71184000D03*
X173386000Y-75184000D03*
X169386000Y-75184000D03*
D15*
X174386000Y-73184000D03*
X166386000Y-73184000D03*
D16*
X124142500Y-91376500D03*
X138061700Y-81727300D03*
X135521700Y-81727300D03*
X132981700Y-81727300D03*
X130441700Y-81727300D03*
D17*
X127901700Y-81727300D03*
D16*
X121602500Y-93916500D03*
X124142500Y-93916500D03*
X126682500Y-93916500D03*
X129222500Y-93916500D03*
X131762500Y-93916500D03*
X134302500Y-93916500D03*
X136842500Y-93916500D03*
X139382500Y-93916500D03*
X141922500Y-93916500D03*
X144462500Y-93916500D03*
X147002500Y-93916500D03*
X149542500Y-93916500D03*
X152082500Y-93916500D03*
X154622500Y-93916500D03*
D17*
X121602500Y-78676500D03*
D16*
X124142500Y-78676500D03*
X126682500Y-78676500D03*
X129222500Y-78676500D03*
X131762500Y-78676500D03*
X134302500Y-78676500D03*
X136842500Y-78676500D03*
X139382500Y-78676500D03*
X141922500Y-78676500D03*
X144462500Y-78676500D03*
X147002500Y-78676500D03*
X149542500Y-78676500D03*
X152082500Y-78676500D03*
X157162500Y-93916500D03*
X159702500Y-93916500D03*
X162242500Y-93916500D03*
X164782500Y-93916500D03*
X167322500Y-93916500D03*
X169862500Y-93916500D03*
X172402500Y-93916500D03*
X174942500Y-93916500D03*
X177482500Y-93916500D03*
X180022500Y-93916500D03*
X180022500Y-78676500D03*
X177482500Y-78676500D03*
X174942500Y-78676500D03*
X172402500Y-78676500D03*
X154622500Y-78676500D03*
X157162500Y-78676500D03*
X159702500Y-78676500D03*
X169862500Y-78676500D03*
X167322500Y-78676500D03*
X164782500Y-78676500D03*
X162242500Y-78676500D03*
D18*
X134572500Y-91478100D03*
D19*
X136572500Y-91478100D03*
X134572500Y-89478100D03*
X136572500Y-89478100D03*
X136572500Y-87478100D03*
X134572500Y-87478100D03*
D16*
X167322500Y-81216500D03*
X167322500Y-83756500D03*
X167322500Y-86296500D03*
X167322500Y-88836500D03*
X167322500Y-91376500D03*
D19*
X122332500Y-85026500D03*
X122332500Y-87566500D03*
M02*
